<svg width="20" height="21" viewBox="0 0 20 21" fill="none" xmlns="http://www.w3.org/2000/svg">
<path d="M0 19.5438C0 19.9862 0.3575 20.3438 0.8 20.3438H19.2C19.6425 20.3438 20 19.9862 20 19.5438V9.04375H0V19.5438ZM19.2 2.14375H15V0.54375C15 0.43375 14.91 0.34375 14.8 0.34375H13.4C13.29 0.34375 13.2 0.43375 13.2 0.54375V2.14375H6.8V0.54375C6.8 0.43375 6.71 0.34375 6.6 0.34375H5.2C5.09 0.34375 5 0.43375 5 0.54375V2.14375H0.8C0.3575 2.14375 0 2.50125 0 2.94375V7.34375H20V2.94375C20 2.50125 19.6425 2.14375 19.2 2.14375Z" fill="#2D2F2F"/>
</svg>
