<svg width="26" height="26" viewBox="0 0 26 26" fill="none" xmlns="http://www.w3.org/2000/svg">
<g clip-path="url(#clip0_480_2569)">
<path d="M0.726562 6.68493C0.726563 5.84741 1.05927 5.04418 1.65149 4.45196C2.24371 3.85974 3.04693 3.52704 3.88446 3.52704H22.8318C23.6693 3.52704 24.4726 3.85974 25.0648 4.45196C25.657 5.04418 25.9897 5.84741 25.9897 6.68493V19.3165C25.9897 20.154 25.657 20.9573 25.0648 21.5495C24.4726 22.1417 23.6693 22.4744 22.8318 22.4744H3.88446C3.04693 22.4744 2.24371 22.1417 1.65149 21.5495C1.05927 20.9573 0.726563 20.154 0.726562 19.3165V6.68493ZM4.67393 8.26388C4.46455 8.26388 4.26374 8.34706 4.11569 8.49511C3.96763 8.64317 3.88446 8.84397 3.88446 9.05336V10.6323C3.88446 10.8417 3.96763 11.0425 4.11569 11.1905C4.26374 11.3386 4.46455 11.4218 4.67393 11.4218H7.83182C8.04121 11.4218 8.24201 11.3386 8.39007 11.1905C8.53812 11.0425 8.6213 10.8417 8.6213 10.6323V9.05336C8.6213 8.84397 8.53812 8.64317 8.39007 8.49511C8.24201 8.34706 8.04121 8.26388 7.83182 8.26388H4.67393ZM4.67393 13.0007C4.46455 13.0007 4.26374 13.0839 4.11569 13.232C3.96763 13.38 3.88446 13.5808 3.88446 13.7902C3.88446 13.9996 3.96763 14.2004 4.11569 14.3484C4.26374 14.4965 4.46455 14.5797 4.67393 14.5797H12.5687C12.778 14.5797 12.9789 14.4965 13.1269 14.3484C13.275 14.2004 13.3581 13.9996 13.3581 13.7902C13.3581 13.5808 13.275 13.38 13.1269 13.232C12.9789 13.0839 12.778 13.0007 12.5687 13.0007H4.67393ZM4.67393 16.1586C4.46455 16.1586 4.26374 16.2418 4.11569 16.3898C3.96763 16.5379 3.88446 16.7387 3.88446 16.9481C3.88446 17.1575 3.96763 17.3583 4.11569 17.5063C4.26374 17.6544 4.46455 17.7376 4.67393 17.7376H6.25288C6.46226 17.7376 6.66306 17.6544 6.81112 17.5063C6.95917 17.3583 7.04235 17.1575 7.04235 16.9481C7.04235 16.7387 6.95917 16.5379 6.81112 16.3898C6.66306 16.2418 6.46226 16.1586 6.25288 16.1586H4.67393ZM9.41077 16.1586C9.20139 16.1586 9.00058 16.2418 8.85253 16.3898C8.70447 16.5379 8.6213 16.7387 8.6213 16.9481C8.6213 17.1575 8.70447 17.3583 8.85253 17.5063C9.00058 17.6544 9.20139 17.7376 9.41077 17.7376H10.9897C11.1991 17.7376 11.3999 17.6544 11.548 17.5063C11.696 17.3583 11.7792 17.1575 11.7792 16.9481C11.7792 16.7387 11.696 16.5379 11.548 16.3898C11.3999 16.2418 11.1991 16.1586 10.9897 16.1586H9.41077ZM14.1476 16.1586C13.9382 16.1586 13.7374 16.2418 13.5894 16.3898C13.4413 16.5379 13.3581 16.7387 13.3581 16.9481C13.3581 17.1575 13.4413 17.3583 13.5894 17.5063C13.7374 17.6544 13.9382 17.7376 14.1476 17.7376H15.7266C15.9359 17.7376 16.1367 17.6544 16.2848 17.5063C16.4329 17.3583 16.516 17.1575 16.516 16.9481C16.516 16.7387 16.4329 16.5379 16.2848 16.3898C16.1367 16.2418 15.9359 16.1586 15.7266 16.1586H14.1476ZM18.8845 16.1586C18.6751 16.1586 18.4743 16.2418 18.3262 16.3898C18.1782 16.5379 18.095 16.7387 18.095 16.9481C18.095 17.1575 18.1782 17.3583 18.3262 17.5063C18.4743 17.6544 18.6751 17.7376 18.8845 17.7376H20.4634C20.6728 17.7376 20.8736 17.6544 21.0216 17.5063C21.1697 17.3583 21.2529 17.1575 21.2529 16.9481C21.2529 16.7387 21.1697 16.5379 21.0216 16.3898C20.8736 16.2418 20.6728 16.1586 20.4634 16.1586H18.8845Z" fill="#CBCBCB"/>
</g>
<defs>
<clipPath id="clip0_480_2569">
<rect width="25.2632" height="25.2632" fill="white" transform="translate(0.726562 0.369141)"/>
</clipPath>
</defs>
</svg>
