<svg width="20" height="21" viewBox="0 0 20 21" fill="none" xmlns="http://www.w3.org/2000/svg">
<path d="M16.7181 15.9821C17.6157 14.9021 18.24 13.6219 18.5381 12.2497C18.8363 10.8775 18.7996 9.45361 18.4311 8.09858C18.0625 6.74356 17.3731 5.49722 16.421 4.465C15.469 3.43278 14.2823 2.64505 12.9614 2.16844C11.6405 1.69183 10.2243 1.54037 8.83248 1.72687C7.44067 1.91337 6.11426 2.43235 4.96545 3.23989C3.81664 4.04743 2.87922 5.11979 2.2325 6.36624C1.58577 7.6127 1.24877 8.99658 1.25 10.4008C1.25048 12.4422 1.96984 14.4182 3.28188 15.9821L3.26938 15.9927C3.31313 16.0452 3.36313 16.0902 3.40813 16.1421C3.46438 16.2064 3.525 16.2671 3.58313 16.3296C3.75813 16.5196 3.93813 16.7021 4.12688 16.8733C4.18438 16.9258 4.24375 16.9746 4.30188 17.0246C4.50188 17.1971 4.7075 17.3608 4.92063 17.5133C4.94813 17.5321 4.97313 17.5564 5.00063 17.5758V17.5683C6.46444 18.5984 8.21069 19.1513 10.0006 19.1513C11.7906 19.1513 13.5368 18.5984 15.0006 17.5683V17.5758C15.0281 17.5564 15.0525 17.5321 15.0806 17.5133C15.2931 17.3602 15.4994 17.1971 15.6994 17.0246C15.7575 16.9746 15.8169 16.9252 15.8744 16.8733C16.0631 16.7014 16.2431 16.5196 16.4181 16.3296C16.4763 16.2671 16.5363 16.2064 16.5931 16.1421C16.6375 16.0902 16.6881 16.0452 16.7319 15.9921L16.7181 15.9821ZM10 5.40082C10.5563 5.40082 11.1 5.56577 11.5625 5.87482C12.0251 6.18386 12.3855 6.62311 12.5984 7.13703C12.8113 7.65094 12.867 8.21644 12.7585 8.76202C12.6499 9.30759 12.3821 9.80873 11.9887 10.2021C11.5954 10.5954 11.0943 10.8633 10.5487 10.9718C10.0031 11.0803 9.43762 11.0246 8.92371 10.8117C8.40979 10.5989 7.97054 10.2384 7.6615 9.77587C7.35245 9.31335 7.1875 8.76958 7.1875 8.21332C7.1875 7.4674 7.48382 6.75203 8.01127 6.22459C8.53871 5.69714 9.25408 5.40082 10 5.40082ZM5.00438 15.9821C5.01522 15.1614 5.34872 14.378 5.93273 13.8014C6.51673 13.2248 7.30429 12.9012 8.125 12.9008H11.875C12.6957 12.9012 13.4833 13.2248 14.0673 13.8014C14.6513 14.378 14.9848 15.1614 14.9956 15.9821C13.6249 17.2173 11.8452 17.9009 10 17.9009C8.15484 17.9009 6.3751 17.2173 5.00438 15.9821Z" fill="black"/>
</svg>
