<svg width="40" height="41" viewBox="0 0 40 41" fill="none" xmlns="http://www.w3.org/2000/svg">
<path d="M20 40.5C8.97025 40.5 0 31.5297 0 20.5C0 9.47025 8.97025 0.5 20 0.5C31.0297 0.5 40 9.47025 40 20.5C40 31.5297 31.0297 40.5 20 40.5ZM20 1.83377C9.70905 1.83377 1.33377 10.2091 1.33377 20.5C1.33377 30.7909 9.70905 39.1662 20 39.1662C30.2909 39.1662 38.6662 30.7909 38.6662 20.5C38.6662 10.2091 30.2975 1.83377 20 1.83377Z" fill="white"/>
<path d="M31.8078 26.9662L24.3282 13.3931C24.2105 13.1774 23.9882 13.0466 23.7463 13.0466C23.5044 13.0466 23.2821 13.1774 23.1644 13.3931L16.2602 25.907L9.36252 13.3931C9.186 13.0728 8.78064 12.9551 8.45373 13.1316C8.13336 13.3082 8.01568 13.7135 8.19221 14.0404L15.6783 27.6135C15.796 27.8292 16.0183 27.96 16.2602 27.96C16.5021 27.96 16.7244 27.8292 16.8421 27.6135L23.7398 15.0996L27.29 21.5396H21.9091C21.543 21.5396 21.2422 21.8403 21.2422 22.2065C21.2422 22.5726 21.543 22.8734 21.9091 22.8734H28.0222L30.6375 27.6069C30.7617 27.8292 30.984 27.9535 31.2193 27.9535C31.3305 27.9535 31.4416 27.9273 31.5397 27.8685C31.8732 27.6919 31.9908 27.2866 31.8078 26.9662Z" fill="white"/>
</svg>
